<?xml version="1.0" standalone="no"?>
<!DOCTYPE svg PUBLIC "-//W3C//DTD SVG 1.1//EN" "http://www.w3.org/Graphics/SVG/1.1/DTD/svg11.dtd">
<svg xmlns="http://www.w3.org/2000/svg">
<metadata>Generated by Fontastic.me</metadata>
<defs>
<font id="cedarcare" horiz-adv-x="512">
<font-face font-family="cedarcare" units-per-em="512" ascent="480" descent="-32"/>
<missing-glyph horiz-adv-x="512" />

<glyph glyph-name="heartbeat" unicode="&#97;" d="M366 219l87 0c-1-1-2-2-3-3-1 0-2-1-3-2l0-1-178-171c-4-4-8-5-13-5-5 0-9 1-13 5l-178 172c-1 0-3 2-6 5l106 0c4 0 8 2 11 4 3 3 5 6 6 10l20 80 55-190c1-4 3-7 6-10 3-2 7-3 11-3 4 0 8 1 11 3 3 3 6 6 7 10l41 138 16-32c4-6 9-10 17-10z m146 123c0-28-10-56-29-86l-106 0-32 63c-1 3-4 6-7 8-3 2-7 3-10 2-9-1-14-5-16-13l-37-123-56 196c-1 4-4 7-7 10-3 2-7 3-11 3-4 0-8-1-11-4-4-2-6-5-7-9l-33-133-121 0c-19 30-29 58-29 86 0 42 12 74 36 98 24 24 58 35 101 35 11 0 23-2 36-6 12-4 23-9 34-16 11-7 20-14 27-20 8-6 15-12 22-19 7 7 14 13 22 19 7 6 16 13 27 20 11 7 22 12 34 16 13 4 25 6 36 6 43 0 77-11 101-35 24-24 36-56 36-98z"/>
<glyph glyph-name="doctor" unicode="&#98;" d="M165 128c0-5-2-9-6-13-3-3-8-5-13-5-5 0-9 2-13 5-3 4-5 8-5 13 0 5 2 9 5 13 4 3 8 5 13 5 5 0 10-2 13-5 4-4 6-8 6-13z m292-17c0-23-7-42-21-55-14-13-32-19-55-19l-250 0c-23 0-41 6-55 19-14 13-21 32-21 55 0 13 0 25 1 37 1 12 4 25 7 39 4 15 8 27 14 38 5 11 13 21 23 30 10 8 21 14 34 17-4-10-6-21-6-34l0-58c-11-4-20-11-27-20-6-10-10-20-10-32 0-15 6-28 16-39 11-11 24-16 39-16 16 0 28 5 39 16 11 11 16 24 16 39 0 12-3 22-10 32-7 9-16 16-26 20l0 58c0 12 2 20 7 26 25-20 53-29 84-29 31 0 59 9 84 29 5-6 7-14 7-26l0-19c-20 0-37-7-51-21-15-14-22-32-22-52l0-25c-6-6-9-12-9-20 0-8 3-15 8-20 5-5 12-8 20-8 7 0 14 3 19 8 5 5 8 12 8 20 0 8-3 14-9 20l0 25c0 10 3 19 11 26 7 7 16 11 25 11 10 0 19-4 26-11 7-7 11-16 11-26l0-25c-6-6-9-12-9-20 0-8 3-15 8-20 5-5 12-8 19-8 8 0 14 3 20 8 5 5 8 12 8 20 0 8-3 14-9 20l0 25c0 13-4 25-10 37-7 11-16 20-27 26 0 2 0 6 0 13 0 6 0 10 0 13 0 3 0 7-1 12 0 5-1 10-2 14-1 4-2 7-4 11 13-3 25-9 35-17 10-9 17-19 23-30 5-11 10-23 13-38 4-14 6-27 7-39 1-12 2-24 2-37z m-91 255c0-31-11-56-32-78-22-21-48-32-78-32-30 0-56 11-78 32-21 22-32 47-32 78 0 30 11 56 32 77 22 22 48 32 78 32 30 0 56-10 78-32 21-21 32-47 32-77z"/>
<glyph glyph-name="medkit" unicode="&#99;" d="M366 192l0 55c0 3-1 5-3 6-2 2-4 3-6 3l-64 0 0 64c0 3-1 5-3 7-2 1-4 2-7 2l-54 0c-3 0-5-1-7-2-2-2-3-4-3-7l0-64-64 0c-2 0-4-1-6-3-2-1-3-3-3-6l0-55c0-3 1-5 3-7 2-1 4-2 6-2l64 0 0-64c0-3 1-5 3-7 2-1 4-2 7-2l54 0c3 0 5 1 7 2 2 2 3 4 3 7l0 64 64 0c2 0 4 1 6 2 2 2 3 4 3 7z m-183 210l146 0 0 37-146 0z m-110 0l0-365-9 0c-18 0-33 6-45 18-13 13-19 28-19 46l0 237c0 18 6 33 19 45 12 13 27 19 45 19z m338 0l0-365-310 0 0 365 45 0 0 46c0 8 3 14 8 19 6 6 12 8 20 8l164 0c8 0 14-2 20-8 5-5 8-11 8-19l0-46z m101-64l0-237c0-18-6-33-19-46-12-12-27-18-45-18l-9 0 0 365 9 0c18 0 33-6 45-19 13-12 19-27 19-45z"/>
<glyph glyph-name="pin" unicode="&#101;" d="M329 329c0 20-7 38-21 52-15 14-32 21-52 21-20 0-37-7-52-21-14-14-21-32-21-52 0-20 7-37 21-52 15-14 32-21 52-21 20 0 37 7 52 21 14 15 21 32 21 52z m73 0c0-21-3-38-9-51l-104-221c-3-6-8-11-14-15-6-4-12-5-19-5-7 0-13 1-19 5-6 4-11 9-14 15l-104 221c-6 13-9 30-9 51 0 41 14 75 43 104 28 28 63 42 103 42 40 0 75-14 103-42 29-29 43-63 43-104z"/>
<glyph glyph-name="envelope" unicode="&#102;" d="M475 82l0 220c-6-7-12-13-19-19-51-39-92-72-122-97-10-8-18-14-24-19-6-4-14-9-24-14-11-4-21-7-30-7l0 0c-9 0-19 3-30 7-10 5-18 10-24 14-6 5-14 11-24 19-30 25-71 58-122 97-7 6-13 12-19 19l0-220c0-2 0-4 2-6 2-2 4-3 7-3l420 0c3 0 5 1 7 3 2 2 2 4 2 6z m0 301l0 7 0 3-1 4-1 2-3 3-4 0-420 0c-3 0-5-1-7-2-2-2-2-4-2-7 0-32 14-59 42-81 36-29 75-59 114-91 1-1 5-3 10-8 6-5 10-8 13-11 4-2 8-5 13-9 5-3 10-6 14-8 5-1 9-2 13-2l0 0c4 0 8 1 13 2 4 2 9 5 14 8 5 4 9 7 13 9 3 3 7 6 13 11 5 5 9 7 10 8 39 32 78 62 114 91 11 8 20 19 29 33 9 14 13 26 13 38z m37 10l0-311c0-12-4-23-13-32-9-9-20-13-33-13l-420 0c-13 0-24 4-33 13-9 9-13 20-13 32l0 311c0 13 4 23 13 32 9 9 20 14 33 14l420 0c13 0 24-5 33-14 9-9 13-19 13-32z"/>
<glyph glyph-name="phone" unicode="&#103;" d="M457 158c0-5-1-12-3-20-2-9-4-15-6-20-4-10-15-20-35-30-17-10-35-15-53-15-5 0-10 0-15 1-5 1-10 2-16 4-6 1-11 3-14 4-3 1-8 3-16 6-7 3-12 4-14 5-18 7-35 14-50 24-24 15-49 35-75 61-26 26-47 51-62 76-9 14-17 31-23 50-1 1-3 6-6 14-2 7-4 13-5 16-1 3-3 7-5 13-1 6-2 12-3 17-1 4-1 9-1 15 0 17 5 35 14 53 11 19 21 31 31 35 4 2 11 4 19 6 9 1 15 2 20 2 3 0 5 0 6 0 4-2 9-9 16-22 2-4 5-9 8-16 4-6 7-12 10-18 3-5 6-10 9-15 1-1 2-3 5-7 3-4 5-8 6-10 1-3 2-6 2-8 0-4-3-9-8-15-5-5-11-11-18-15-6-5-12-10-17-16-6-5-9-9-9-13 0-1 1-4 2-6 1-3 2-5 2-6 1-1 2-4 4-7 2-3 3-5 4-5 14-26 31-49 49-67 19-19 41-36 67-50 1 0 3-1 6-3 3-2 5-4 7-4 1-1 3-2 6-3 2-1 4-1 6-1 3 0 8 2 13 8 5 5 11 11 15 18 5 6 10 12 16 17 6 6 10 8 14 8 3 0 6 0 8-2 3-1 7-3 11-6 4-2 6-4 7-5 4-3 10-6 15-9 5-3 11-6 18-10 7-3 12-6 16-8 13-7 20-12 21-15 1-2 1-4 1-6z"/>
<glyph glyph-name="twitter" unicode="&#104;" d="M481 395c-13-18-28-34-46-47 0-3 0-7 0-12 0-25-3-50-11-74-7-25-18-49-33-71-14-23-32-43-52-61-21-17-45-31-74-41-29-11-60-16-92-16-52 0-99 14-142 42 7-1 14-2 22-2 43 0 81 14 115 40-20 0-38 6-54 18-16 12-27 27-33 46 7-1 13-2 18-2 8 0 16 1 24 4-21 4-39 15-53 31-14 17-21 37-21 59l0 1c13-7 27-11 42-11-13 8-23 19-30 32-8 14-11 29-11 44 0 17 4 33 12 47 23-28 51-51 84-68 33-17 69-27 107-29-2 8-3 15-3 22 0 25 9 47 27 65 18 18 40 27 66 27 26 0 49-10 67-29 21 4 40 11 59 22-7-22-21-39-41-51 18 2 35 7 53 14z"/>
<glyph glyph-name="twitter-square" unicode="&#105;" d="M402 338c-10-5-22-8-34-10 13 8 22 19 26 33-12-7-25-12-38-14-12 12-26 19-44 19-16 0-30-6-42-18-12-12-18-26-18-42 0-6 1-10 2-14-25 1-48 8-69 19-22 11-40 25-55 44-6-10-9-20-9-30 0-22 9-39 26-50-9 0-18 2-28 7l0-1c0-14 5-27 14-38 10-11 21-18 35-20-5-2-10-3-14-3-3 0-6 1-11 1 4-12 11-21 21-29 10-8 22-12 35-12-23-17-47-26-75-26-5 0-10 0-14 1 28-18 59-27 92-27 21 0 41 3 60 10 18 7 34 16 48 27 13 12 25 25 34 39 10 15 17 31 22 47 4 16 7 32 7 48 0 3-1 6-1 8 12 8 22 19 30 31z m73 55l0-274c0-23-8-42-24-58-16-16-35-24-58-24l-274 0c-23 0-42 8-58 24-16 16-24 35-24 58l0 274c0 23 8 42 24 58 16 16 35 24 58 24l274 0c23 0 42-8 58-24 16-16 24-35 24-58z"/>
<glyph glyph-name="facebook-square" unicode="&#106;" d="M393 475c23 0 42-8 58-24 16-16 24-35 24-58l0-274c0-23-8-42-24-58-16-16-35-24-58-24l-54 0 0 170 57 0 9 66-66 0 0 42c0 11 3 19 7 24 5 5 13 8 26 8l35 0 0 60c-12 1-29 2-51 2-26 0-46-7-62-23-15-15-23-36-23-64l0-49-57 0 0-66 57 0 0-170-152 0c-23 0-42 8-58 24-16 16-24 35-24 58l0 274c0 23 8 42 24 58 16 16 35 24 58 24z"/>
<glyph glyph-name="facebook" unicode="&#107;" d="M384 509l0-76-45 0c-17 0-28-3-33-10-6-7-9-17-9-31l0-54 84 0-11-85-73 0 0-216-87 0 0 216-73 0 0 85 73 0 0 62c0 36 10 63 29 83 20 19 47 29 80 29 28 0 49-1 65-3z"/>
<glyph glyph-name="instagram" unicode="&#108;" d="M426 105l0 185-39 0c4-12 6-25 6-38 0-24-6-46-18-66-13-20-29-36-50-48-21-12-44-18-69-18-37 0-69 13-96 39-27 26-40 57-40 93 0 13 2 26 6 38l-41 0 0-185c0-5 2-10 5-13 4-3 8-5 13-5l305 0c5 0 9 2 13 5 3 3 5 8 5 13z m-81 152c0 23-9 44-26 60-18 17-38 25-63 25-24 0-45-8-62-25-17-16-26-37-26-60 0-24 9-44 26-61 17-16 38-25 62-25 25 0 45 9 63 25 17 17 26 37 26 61z m81 103l0 47c0 5-2 10-6 14-4 4-8 6-14 6l-50 0c-5 0-10-2-14-6-4-4-5-9-5-14l0-47c0-6 1-10 5-14 4-4 9-6 14-6l50 0c6 0 10 2 14 6 4 4 6 8 6 14z m49 59l0-326c0-16-5-29-16-40-11-11-24-16-40-16l-326 0c-16 0-29 5-40 16-11 11-16 24-16 40l0 326c0 16 5 29 16 40 11 11 24 16 40 16l326 0c16 0 29-5 40-16 11-11 16-24 16-40z"/>
<glyph glyph-name="linkedin" unicode="&#109;" d="M136 333l0-283-94 0 0 283z m6 88c0-14-4-26-14-35-10-9-23-14-39-14l0 0c-16 0-29 5-38 14-10 9-14 21-14 35 0 14 4 26 14 35 10 9 23 14 39 14 16 0 28-5 38-14 9-9 14-21 14-35z m333-208l0-163-94 0 0 152c0 20-3 35-11 47-8 11-20 17-36 17-12 0-22-4-30-10-9-7-15-15-19-25-2-5-3-13-3-23l0-158-94 0c1 76 1 138 1 185 0 47 0 76 0 85l-1 13 94 0 0-41 0 0c4 6 7 12 11 16 4 5 10 10 17 15 6 5 15 10 24 13 10 3 21 4 33 4 33 0 59-11 79-32 20-22 29-54 29-95z"/>
<glyph glyph-name="linkedin-square" unicode="&#110;" d="M104 108l66 0 0 198-66 0z m71 259c-1 10-4 19-11 25-6 6-15 10-26 10-11 0-20-4-27-10-7-6-11-15-11-25 0-9 4-17 10-24 7-7 16-10 27-10l0 0c11 0 20 3 27 10 7 7 11 15 11 24z m167-259l66 0 0 114c0 29-7 51-21 66-14 15-32 23-55 23-26 0-46-11-60-34l1 0 0 29-66 0c0-12 0-78 0-198l66 0 0 111c0 7 0 12 2 16 2 7 7 12 12 17 6 5 13 7 22 7 22 0 33-15 33-45z m133 285l0-274c0-23-8-42-24-58-16-16-35-24-58-24l-274 0c-23 0-42 8-58 24-16 16-24 35-24 58l0 274c0 23 8 42 24 58 16 16 35 24 58 24l274 0c23 0 42-8 58-24 16-16 24-35 24-58z"/>
<glyph glyph-name="clipboard-notes" unicode="&#111;" d="M413 424l0 0c0 0 0 0 0 0 0 15-12 27-26 27-1 0-1 0-1 0l-74 0 0 18c0 4-4 8-9 8l0 0-94 0 0 0c0 0 0 0 0 0-5 0-8-4-8-8 0 0 0 0 0-1l0-17-76 0c0 0 0 0 0 0-14 0-26-12-26-27 0 0 0 0 0 0l0 0 0-362 0 0c0 0 0 0 0 0 0-15 12-27 26-27 1 0 1 0 2 0l0 0 258 0c1 0 1 0 2 0 14 0 26 12 26 27 0 0 0 0 0 0l1 0 0 362z m-50-338l-214 0 0 314 26 0 0-15c0-1 0-1 0-1 0-5 4-9 9-9 0 0 0 0 0 0l0 0 144 0c5 0 9 4 9 9 0 0 0 0 0 0l0 16 26 0 0-314z m-163 215c0 4-2 7-6 7 0 0 0 0 0-1l0 1-13 0c-3 0-6-3-6-7l0-13c0-3 3-6 6-6l13 0 0 0c0 0 0 0 0 0 4 0 6 3 6 6l0 13 0 0z m137 0c0 4-3 7-6 7 0 0 0 0 0 0l-99 0c-3 0-6-3-6-7l0-13c0-3 3-6 6-6l99 0c3 0 6 3 6 6l0 13 0 0z m-137-51c0 4-2 7-6 7 0 0 0-1 0-1l0 1-13 0c-3 0-6-3-6-7l0-13c0-3 3-6 6-6l13 0 0 0c0 0 0 0 0 0 4 0 6 3 6 6l0 13 0 0z m137 0c0 4-3 7-6 7 0 0 0 0 0 0l-99 0c-3 0-6-3-6-7l0-13c0-3 3-6 6-6l99 0c3 0 6 3 6 6l0 13 0 0z m-137-51c0 4-2 6-6 6 0 0 0 0 0 0l0 0-13 0c-3 0-6-2-6-6l0-13c0-3 3-6 6-6l13 0 0 0c0 0 0 0 0 0 4 0 6 3 6 6l0 13 0 0z m137 0c0 4-3 6-6 6 0 0 0 0 0 0l-99 0c-3 0-6-2-6-6l0-13c0-3 3-6 6-6l99 0c3 0 6 3 6 6l0 13 0 0z"/>
<glyph glyph-name="arrow-up-c" unicode="&#112;" d="M128 323l105 100c6 6 14 9 23 9 9 0 16-3 22-9l106-100c12-12 12-32 0-44-13-11-33-11-46 0l-50 49 0-217c0-17-14-31-32-31-18 0-32 14-32 31l0 217-50-49c-13-12-33-12-46 0-12 12-12 32 0 44z"/>
<glyph glyph-name="heart-broken" unicode="&#113;" d="M229 224c1 18 0 38 8 55 2 5 1 10 1 15-4 21-14 40-15 60 0 1 1 5 1 6-3-2-8-4-11-5-20-6-18-3-35-14l-11-7c16 18 38 25 56 39 0 15 1 31 3 46-40 40-104 39-144-3-45-47-45-124 0-171l153-159c0 11 0 21-2 31-6 36-4 71-4 107z m93-13c-11 26-33 44-63 50-1 0-2 1-3 1 0 0 0 0 0 0-11-48-23-94-21-142 0-12 4-25 4-38l17-18 104 108c-15 11-30 21-38 39z m108 205c-41 43-106 43-147 0l-19-19c0-14 0-27-3-39-2-10-19-19-16-31 3-13 8-26 11-39 15-8 29-19 41-32 23-27 38-57 65-81l68 70c45 47 45 124 0 171z"/>
<glyph glyph-name="heart" unicode="&#114;" d="M430 416c-40 42-106 42-146 0l-28-28-27 28c-41 43-106 43-147 0-45-47-45-124 0-171l174-181 174 181c45 47 45 124 0 171z"/>
<glyph glyph-name="drugs" unicode="&#115;" d="M358 510c-22-3-41-10-60-24-6-4-25-22-68-65l-60-60 63-63 64-63 7 5c38 29 88 37 133 22 6-1 11-3 12-3 1-1 6 3 17 15 17 20 23 27 30 40 10 19 15 40 15 63 0 22-4 42-14 61-26 51-83 81-139 72z m-268-228c-66-67-70-72-80-97-17-42-11-91 16-128 29-41 80-63 130-56 22 4 44 12 62 26 3 2 12 11 21 19l15 15-4 11c-10 30-10 63-1 92 4 14 13 31 22 43l4 6-63 64-64 63z m280-45c-58-12-98-60-98-117 0-25 8-49 22-69 6-9 21-23 30-29 14-10 34-18 48-20l5 0 0 236-3 0c-1 0-3 0-4-1z m37-117l0-118 5 0c23 4 48 17 66 35 10 11 15 18 21 31 9 16 12 32 12 52 0 20-3 36-12 52-6 12-11 20-20 30-17 17-36 28-59 34-5 1-9 2-11 2l-2 0z"/>
<glyph glyph-name="group" unicode="&#116;" d="M241 472c-8-2-20-6-29-11-11-6-27-21-33-32-20-36-14-79 15-107 17-18 38-26 62-26 24 0 45 8 62 26 29 28 35 71 15 107-6 11-22 26-33 32-18 10-39 14-59 11z m-158-84c-19-5-36-20-44-39-4-9-5-15-5-26 0-10 2-19 7-29 8-17 24-30 43-35 9-2 24-2 32 0 15 4 30 15 39 28 13 20 15 46 3 68-5 10-17 22-27 27-14 8-32 10-48 6z m312 0c-17-5-33-18-41-33-9-17-11-38-3-56 7-19 25-34 45-40 9-2 24-2 32 0 24 6 42 25 49 49 1 7 2 22 0 29-5 25-25 45-49 51-10 3-23 3-33 0z m-199-113c-16-3-26-9-37-20-10-9-15-18-19-30l-2-8-1-84c0-82 0-84 2-87 1-2 3-4 5-5 3-2 6-2 112-2 107 0 109 0 112 2 2 1 4 3 5 5 2 3 2 5 2 87l0 84-3 8c-4 12-9 21-19 30-9 10-17 15-30 19l-7 2-57 1c-46 0-59 0-63-2z m-132-37c-28-4-52-24-61-53-2-8-2-8-2-60l0-52 2-5c5-12 14-22 26-26 5-2 7-3 43-3l38 0-1 3c-2 5-3 157-1 171 1 5 2 12 3 15 1 4 2 7 2 9l0 2-21 0c-12 0-24-1-28-1z m335-1c1-2 2-5 2-9 1-3 3-10 3-15 2-14 1-166-1-171l-1-3 38 0c37 0 38 1 43 3 12 4 22 14 26 26l3 5 0 52c0 52 0 52-3 60-7 24-24 42-47 49-10 4-20 5-43 5l-20 0z"/>
<glyph glyph-name="group-2" unicode="&#117;" d="M241 467c-34-6-62-32-71-66-3-11-3-31-1-42 6-22 19-41 36-53 7-5 21-11 30-13 11-3 31-3 43 0 8 2 22 8 29 13 17 12 30 31 36 53 2 11 2 31-1 42-8 31-30 54-61 63-7 3-11 3-22 4-7 0-16-1-18-1z m29-31c10-2 20-7 28-16 33-33 16-89-30-99-14-2-25-1-39 6-29 14-40 49-25 79 7 14 23 27 38 30 7 2 20 2 28 0z m-185-52c-13-4-24-10-34-21-26-28-22-74 8-97 7-5 18-10 26-12 7-2 23-2 30 0 8 2 21 8 27 13 11 9 20 24 23 37 2 8 2 23 0 31-6 23-26 43-49 48-8 2-24 2-31 1z m25-30c11-3 21-13 25-24 2-7 2-17-1-25-3-8-12-17-20-20-14-5-28-2-38 7-20 18-14 50 11 60 6 3 16 4 23 2z m286 29c-23-5-43-25-49-48-2-8-2-23 0-31 3-13 13-28 23-37 7-5 19-11 27-13 7-2 23-2 30 0 8 2 19 7 26 12 25 19 32 54 18 83-3 6-5 10-12 16-10 10-15 13-27 17-7 3-28 3-36 1z m29-30c25-10 31-43 11-61-10-9-24-12-37-7-9 3-18 12-21 20-3 8-3 18-1 25 4 10 15 21 24 24 7 2 17 1 24-1z m-231-73c-19-5-37-18-46-34-2-3-4-5-5-5-5 2-21 3-49 3-29-1-32-1-39-3-13-4-22-9-32-20-10-9-16-18-20-32-2-7-2-8-2-58 0-55 0-55 6-65 5-10 15-17 26-20 5-2 27-2 223-2 196 0 218 0 223 2 11 3 21 10 26 20 7 10 7 10 7 65 0 50 0 51-3 58-4 14-9 23-19 32-11 11-20 16-33 20-7 2-10 2-39 3-28 0-44-1-49-3-1 0-3 2-5 5-7 12-18 23-32 29-15 7-16 7-77 7-47 0-54 0-61-2z m118-30c9-2 14-5 20-11 6-6 9-11 11-20 2-5 2-14 2-75l0-70-178 0 0 70c0 75 0 74 6 85 2 5 11 14 17 17 10 6 10 6 66 6 44 0 51 0 56-2z m-176-37c1-1 1-16 1-70l0-69-97 0-3 2c-7 5-7 4-7 53 0 25 0 45 1 48 3 18 18 33 36 36 7 1 67 1 69 0z m308 0c19-3 34-18 37-36 1-3 1-23 1-48 0-49 0-48-7-53l-3-2-97 0 0 69 1 69 3 1c6 1 58 1 65 0z"/>
<glyph glyph-name="dna" unicode="&#118;" d="M91 500c0-84 28-150 88-212l11-11 22 20 22 20-10 11c-19 19-31 34-42 52-21 34-31 73-31 119l0 13-60 0z m270-1c0-66-20-116-67-166-14-14-30-30-59-56-54-48-83-79-102-111-28-46-42-96-42-154l0-12 60 0 0 13c0 66 20 116 67 165 14 15 31 31 60 57 53 48 82 79 101 111 28 46 42 96 42 154l0 12-60 0z m-179-25c1-4 2-11 2-15l1-7 142 0 1 7c1 4 1 11 2 15l0 8-148 0z m20-68c0-1 8-15 13-22l5-7 72 0 5 7c5 7 13 21 13 22 0 1-24 1-54 1-30 0-54 0-54-1z m98-191l-22-20 10-11c19-20 31-34 42-52 21-34 31-74 31-119l0-13 60 0 0 12c0 84-28 150-88 212l-10 11z m-85-87c-5-8-13-21-13-22 0-1 24-1 54-1 30 0 54 0 54 1 0 1-8 14-13 22l-5 7-72 0z m-31-75c0-4-1-11-2-15l0-8 148 0 0 8c-1 4-1 11-2 15l-1 7-142 0z"/>
<glyph glyph-name="blood" unicode="&#119;" d="M246 470c-23-24-51-60-73-91-43-63-68-120-74-171-2-15-1-42 2-55 7-28 19-50 39-69 20-21 43-36 68-44 17-6 28-7 48-7 21 0 31 1 48 7 15 5 25 10 40 20 37 25 58 55 67 95 2 9 3 13 2 33 0 21 0 25-2 37-14 67-55 141-124 221-12 14-30 33-31 33 0 0-5-4-10-9z m-60-298c1-1 4-5 7-9 2-4 5-9 7-11 8-10 23-20 36-25 5-2 7-3 9-6 6-9-1-22-12-22-15 0-47 22-60 40-10 16-12 25-4 32 4 4 12 5 17 1z"/>
<glyph glyph-name="handshake" unicode="&#120;" d="M131 467c-89-15-139-111-101-193 8-17 16-27 39-50l21-22 3 6c3 5 7 10 25 28 23 23 26 25 36 27 12 2 22-2 33-12 8-9 11-15 12-24l0-6 7-1c10-1 15-4 23-12 8-8 11-14 12-22l1-7 7-1c3 0 8-2 10-3 5-3 16-13 20-18 2-4 5-13 5-18 0-3 0-3 3-3 5 0 14-3 18-5 1-1 5-5 9-8 7-7 12-9 19-7 5 1 12 8 16 14 3 4 3 12 0 16 0 2-24 26-51 53-30 30-50 51-50 52 0 7 3 11 8 11 3 0 9-5 55-51 28-28 52-51 53-52 4-1 9-1 13 0 5 2 15 13 16 18 2 9 4 7-52 64-49 49-51 51-51 55 0 5 3 8 9 8 3 0 4-1 54-51 52-53 53-53 60-53 6 0 18 9 21 16 3 6 3 9 0 14-1 3-25 27-70 73-64 64-69 68-72 68-3 0-6-3-40-37-21-20-39-38-41-39-20-12-46-10-63 6-8 9-10 21-5 31 1 2 23 25 51 53l49 50-3 3c-17 15-41 25-65 29-10 2-34 2-44 0z m206 0c-27-4-50-15-69-33-4-3-31-30-60-59l-51-52 0-4c1-6 10-12 21-14 6-1 15 0 21 3 3 1 19 17 42 39 35 35 38 38 43 39 6 3 14 2 20-1 2-1 32-31 74-72 59-59 70-71 72-75 1-3 2-5 2-5 2 0 14 14 20 23 10 16 17 32 21 52 2 13 2 38-1 51-12 58-55 99-112 108-11 2-33 2-43 0z m-181-221c-5-1-8-4-28-25-22-22-23-24-21-32 1-5 11-16 16-18 4-1 9-1 13 0 3 1 43 40 45 44 2 5 2 12-2 18-5 9-15 15-23 13z m38-44c-5-3-43-41-44-44-2-5-1-12 1-16 1-2 4-5 7-8 6-6 11-8 18-6 4 1 7 4 22 19 10 10 20 20 22 22 5 6 6 11 4 17-2 4-11 15-16 17-4 1-10 1-14-1z m45-42c-3-1-10-6-25-21-11-11-21-22-22-24-3-8 0-17 9-24 7-6 12-7 19-5 4 2 42 40 45 45 2 5 3 10 0 14-2 6-12 15-17 16-4 1-5 1-9-1z m39-43c-5-3-42-40-43-44-4-8-2-14 6-22 2-3 6-6 8-6 3-2 10-3 14-1 3 1 39 37 43 43 3 5 4 10 2 15-1 4-11 14-15 16-4 1-11 1-15-1z"/>
<glyph glyph-name="handshake-2" unicode="&#121;" d="M127 484c-31-6-59-20-81-43-47-46-59-116-31-175 11-22 16-29 61-74 33-32 36-35 41-37 4-1 8-2 10-2l5 0 0-6c1-9 5-16 13-24 8-8 13-11 22-12l7-1 0-6c1-8 6-16 14-24 7-7 15-11 22-12l6 0 0-6c1-3 2-8 4-12 4-8 16-19 24-22 7-3 17-3 25 0 5 2 8 4 28 24 24 24 28 29 29 40l0 6 7 1c9 1 15 4 22 12 8 8 12 15 13 23l1 6 6 1c8 1 15 5 23 13 7 7 11 15 13 23 0 6 0 6 3 6 4 0 13 3 17 5 6 4 46 46 52 54 60 85 22 204-76 236-18 6-32 8-53 8-20-1-28-2-45-8-16-5-37-17-48-27l-5-4-5 4c-10 9-30 21-46 26-16 6-27 8-48 9-16 0-21 0-30-2z m48-17c24-4 48-14 65-29l3-3-49-50c-27-27-50-52-51-54-5-9-3-21 6-30 15-16 42-18 62-6 2 1 20 19 41 39 34 34 37 37 40 37 3 0 8-4 72-68 45-46 69-70 70-73 3-5 3-8 0-14-3-7-15-16-21-16-7 0-8 0-60 53-50 50-51 51-54 51-6 0-9-3-9-8 0-4 2-6 51-55 56-57 54-55 52-64-1-5-11-16-16-18-4-1-9-1-13 0-1 1-25 24-53 52-46 46-52 51-55 51-5 0-8-4-8-11 0-1 20-22 50-52 27-27 51-51 51-53 2-4 3-11 0-15-2-4-7-11-11-13-9-5-15-4-25 5-8 8-15 12-23 13l-6 0 0 6c-1 9-5 16-14 25-9 8-13 10-23 12l-5 0-1 7c-1 9-4 14-12 22-7 8-13 11-23 12l-6 1-1 5c0 10-5 19-15 27-9 8-19 12-30 10-10-2-13-4-36-27-18-18-22-23-25-28l-3-6-21 22c-23 23-31 33-39 50-38 82 12 178 101 193 10 2 34 2 44 0z m216-2c92-24 133-130 81-209-6-9-18-23-20-23 0 0-1 2-2 5-2 4-13 16-72 75-42 41-72 71-74 72-6 3-14 4-20 1-5-1-8-4-43-39-40-39-41-40-52-42-10-2-21 2-28 8-8 7-10 4 49 64 52 52 62 62 74 70 13 9 34 17 50 20 4 1 8 1 9 1 1 1 9 1 19 1 16-1 19-1 29-4z m-219-224c7-6 10-12 10-18 0-3 0-6-1-8-3-4-42-43-45-44-4-1-9-1-13 0-5 2-15 13-16 18-2 8-1 10 21 32 11 11 21 21 23 23 3 2 5 2 10 2 5-1 6-1 11-5z m36-38c5-2 14-13 16-17 2-6 1-11-4-17-2-2-12-12-22-22-15-15-18-18-22-19-7-2-12 0-18 6-3 3-6 6-7 8-2 4-3 11-1 16 1 3 39 41 44 44 4 2 10 2 14 1z m40-42c5-1 15-10 17-16 2-4 2-8 1-13-3-5-40-43-45-45-7-3-13-2-20 4-9 7-12 16-9 24 1 2 11 13 22 24 24 23 26 24 34 22z m45-43c3-1 12-10 14-14 2-5 3-10 0-15-1-4-39-42-44-45-3-1-10-2-13 0-4 1-13 10-15 14-2 5-2 10 0 15 1 4 39 42 43 44 4 2 11 2 15 1z"/>
<glyph glyph-name="medical-care" unicode="&#122;" d="M176 490c-5-1-11-6-13-11-3-5-3-6-3-20 0-16 1-20 6-25 1-2 4-4 6-5 4-2 7-2 84-2 77 0 80 0 84 2 2 1 5 3 6 5 5 5 6 9 6 25 0 14 0 15-3 20-2 4-4 6-7 8l-5 3-79 1c-43 0-80-1-82-1z m-69-23c-9-3-15-9-20-19-1-3-1-13-1-203l0-199 2-5c4-8 8-13 16-16l7-4 142 0c124 0 144 0 149 1 11 3 17 9 22 19l3 5 0 398-3 6c-4 8-11 14-18 17-4 2-7 2-19 2l-14 0 0-14c0-20-3-28-13-38-7-6-12-9-21-11-10-2-156-2-166 0-9 2-14 5-21 11-10 10-13 18-13 38l0 14-14 0c-10 0-16-1-18-2z m124-134c2-1 8-11 22-35 11-18 21-33 21-33 0 0 5 5 12 11 6 6 12 11 13 11 1 1 20 1 41 1l38-1 3-2c1-2 2-4 3-7 0-4 0-4-3-8l-4-3-69 0-15-15c-13-12-16-15-19-16-7-1-9 1-29 35-10 17-19 31-19 31 0 1-6-7-12-16-7-10-12-17-14-18-1-1-11-1-29-1l-26 0-3 3c-5 5-4 13 2 16 2 2 6 2 24 2l22 0 14 22c8 12 16 22 17 22 3 2 6 2 10 1z m118-156c3-3 3-4 3-7-1-3-2-5-3-7l-3-3-180 0-2 3c-5 5-4 14 1 17 2 0 32 1 91 1l89 0z m-35-39c3-2 6-6 6-10 0-4-3-8-6-10-6-2-110-2-115 0-4 2-7 6-7 10 0 4 3 8 6 9 5 3 111 3 116 1z"/>
<glyph glyph-name="patient" unicode="&#65;" d="M177 511c-25-4-51-18-66-37-17-20-25-42-25-68-1-24 6-46 21-65 14-19 34-32 58-39 9-2 11-3 27-3 15 0 19 1 26 3 31 8 56 28 69 56 21 42 13 91-20 123-14 13-30 23-49 28-11 2-31 4-41 2z m-88-257c-39-7-71-34-84-71-4-15-5-23-5-68 1-40 1-41 3-44 1-1 3-3 4-4 3-3 4-3 75-3 68 0 71 0 71 2-3 8-3 12-3 20 0 25 13 46 36 56 5 3 11 5 14 6 3 1 19 1 40 1 38 0 42 0 53-5l5-3 9 20c6 11 12 22 15 26 7 10 21 20 34 23 4 1 6 2 7 2 1 1-12 15-19 20-11 9-27 17-40 21l-10 2-99 1c-82 0-100 0-106-2z m279-84c-2 0-5-2-7-3-4-3-6-7-29-53l-25-50-13 18c-10 16-13 19-17 22l-4 2-65 0-5-2c-12-7-14-24-5-34 6-5 9-6 35-6l23 0 19-29c10-15 20-29 22-31 7-5 16-5 24 0 5 2 5 3 29 51 14 27 25 49 25 49 0 0 11-17 23-37 12-21 24-39 25-40 6-6 11-6 44-6l30 0 4 3c12 7 14 24 5 33-6 6-9 7-35 7l-21 0-30 49c-16 27-31 50-32 52-2 2-6 4-8 5-6 1-7 1-12 0z"/>
<glyph glyph-name="envelope-1" unicode="&#67;" d="M512 309l0-227c0-12-4-23-13-32-9-9-20-13-33-13l-420 0c-13 0-24 4-33 13-9 9-13 20-13 32l0 227c8-9 18-17 29-25 69-47 116-79 142-98 11-8 20-15 26-19 7-4 16-9 27-14 12-4 22-7 32-7l0 0c10 0 20 3 32 7 11 5 20 10 27 14 6 4 15 11 26 19 33 23 80 56 142 98 11 8 21 16 29 25z m0 84c0-15-5-29-14-43-9-14-21-25-35-35-71-50-116-81-134-93-1-1-6-4-12-9-6-4-11-8-15-11-4-2-9-5-15-9-6-3-11-6-16-8-6-1-10-2-15-2l0 0c-5 0-9 1-15 2-5 2-10 5-16 8-6 4-11 7-15 9-4 3-9 7-15 11-6 5-11 8-12 9-18 12-43 30-75 52-33 23-52 36-59 41-12 8-23 19-33 33-11 14-16 27-16 39 0 15 4 27 12 37 8 10 19 15 34 15l420 0c13 0 23-5 32-14 9-9 14-19 14-32z"/>
<glyph glyph-name="envelope-square" unicode="&#68;" d="M393 475c23 0 42-8 58-24 16-16 24-35 24-58l0-274c0-23-8-42-24-58-16-16-35-24-58-24l-274 0c-23 0-42 8-58 24-16 16-24 35-24 58l0 274c0 23 8 42 24 58 16 16 35 24 58 24z m9-301l0 124c-6-6-12-12-18-15-6-5-19-13-38-25-19-12-33-21-43-28-19-13-34-20-47-20-13 0-28 7-47 20-9 6-22 15-40 26-18 12-32 21-41 27-2 1-5 4-9 8-4 3-7 6-9 7l0-124c0-8 2-14 8-20 5-5 12-8 19-8l238 0c7 0 14 3 19 8 6 6 8 12 8 20z m0 163c0 8-2 15-8 20-5 6-11 9-19 9l-238 0c-7 0-14-3-19-8-6-6-8-12-8-20 0-7 3-14 8-22 6-7 13-13 20-18 9-6 22-15 39-25 17-11 30-19 37-24 1-1 2-2 5-3 3-2 5-4 6-4 1-1 3-3 6-4 3-2 5-3 7-4 1-1 3-2 6-3 2-1 4-1 6-2 2 0 4 0 6 0 2 0 4 0 6 0 2 1 4 1 6 2 3 1 5 2 6 3 2 1 4 2 7 4 3 1 5 3 6 4 1 0 3 2 6 4 3 1 4 2 5 3l76 50c7 4 13 10 19 17 6 8 9 15 9 21z"/>
<glyph glyph-name="disabled" unicode="&#100;" d="M222 510c-26-7-43-34-36-60 4-19 18-33 38-38 25-6 53 11 60 38 6 26-11 54-38 60-8 2-16 2-24 0z m7-121c-15-3-25-9-32-21-7-10-6-6-7-91 0-52 0-80 1-84 3-18 17-33 35-37 5-1 18-1 64-1l58 0 30-59c22-45 31-61 34-64 11-12 29-13 41-2 6 6 9 13 9 22l0 7-16 32c-61 120-58 115-67 120-4 2-6 2-52 3l-48 0 0 20 38 0c24 0 40 0 42 1 2 1 6 3 8 5 13 11 11 29-5 37-3 1-7 1-43 2l-40 0 0 34c0 20 0 37-1 40-2 13-13 27-23 32-8 4-19 6-26 4z m-76-86c-10-4-26-12-35-18-55-38-80-104-63-168 8-34 29-65 58-86 31-24 74-35 113-30 50 8 93 37 117 82l4 7-9 18-8 17-18 0-1-4c-1-3-3-8-5-13-14-29-42-52-73-60-69-17-136 33-139 103 0 14 1 25 5 37 8 28 27 51 53 65l8 5 0 24c0 12 0 23-1 23 0 0-3-1-6-2z"/>
<glyph glyph-name="worldwide" unicode="&#66;" d="M248 483c-8-1-10-1-14-5-5-4-14-16-20-25-6-11-12-26-17-43-5-13-5-16-4-16 4-2 49-6 63-6l7 0 0 97-3 0c-2 0-7-1-12-2z m45-46l0-49 8 0c14 0 59 4 62 6 1 1 1 3-2 12-9 29-22 55-36 69-7 7-9 8-26 10l-6 0z m-117 21c-14-9-21-14-34-25-8-8-21-22-20-23 0 0 1-1 2-1 2-1 10-3 20-5l17-5 3 10c3 13 11 35 16 44 2 4 4 8 4 8 0 2-2 1-8-3z m196 3c0 0 1-3 3-6 6-11 15-36 19-52l1-4 11 3c14 3 27 7 28 8 1 1-12 16-20 23-10 9-22 18-32 24-9 5-10 6-10 4z m-272-82c-12-23-21-51-23-73l0-7 70 0 0 3c1 2 1 9 2 16 0 7 1 20 2 28 1 9 2 18 2 20l1 3-15 4c-8 2-19 5-24 7-6 2-11 3-12 3 0 0-2-2-3-4z m340 0c-5-1-16-4-23-6-8-2-14-4-14-4-1-1-1-6 0-12 3-16 4-29 5-44l1-14 35 0 35 0 0 3c0 5-3 21-6 32-5 20-17 49-21 49-1 0-6-2-12-4z m-255-17c-2-5-5-32-6-54l-1-9 85 0 0 29 0 28-11 1c-22 1-41 3-54 5-12 1-13 1-13 0z m177 0c-14-2-39-4-55-5l-14 0 0-58 85 0 0 5c-1 2-1 9-1 14-1 15-5 45-6 45 0 0-4 0-9-1z m-285-101c2-16 8-38 14-53l3-8 9 0c7 0 12 1 28 5 11 3 20 6 20 6 1 0 1 7 0 14-1 7-2 19-2 25-1 6-1 13-2 15l0 3-70 0z m102-2c0-10 3-39 3-40 1 0 79 21 80 21 1 1 1 6 1 15l0 13-85 0z m114-5c0-12 0-13 2-14 12-4 26-16 31-26l3-6 8-1c5 0 14-1 21-2l13-2 0 2c2 8 4 27 7 57l0 6-85 0z m116 13c-1 0-1-4-1-8 0-8-2-35-4-48-1-6-2-11-2-12 0-1 2-2 10-4 6-1 17-4 25-7 8-2 15-4 16-4 2 0 12 23 17 36 4 14 7 29 9 41l0 7-35 0c-19 0-35 0-35-1z m-135-56c-2 0-37-10-79-21l-76-20-53-1-52-2-4-2c-2-1-5-4-7-6l-2-4-1-38c0-38 0-39 2-43 2-2 4-6 6-7l4-4 45 0 45-1 99-17 99-18 99 38c54 22 100 40 101 40 7 4 12 13 12 20 0 9-6 18-13 21-10 4-7 5-103-34-76-31-88-36-93-36l-5 0-33 25c-35 26-37 28-40 32-3 6 0 15 5 19 2 1 13 4 30 9 18 4 29 8 31 9 4 3 8 8 10 13 3 9-2 21-11 26-4 2-12 3-16 2z m56-37c0-1-2-6-4-10-8-15-20-24-40-29-6-1-11-3-11-3 0-1 29-22 31-23 1 0 10 4 21 8l20 8 4 8c3 7 11 30 12 37 1 4 2 3-16 5-16 2-16 2-17-1z m65-7c0 0-2-5-3-12-2-6-4-12-4-12 0-1 9 3 20 7 11 5 20 9 19 9-1 1-32 9-32 8z"/>
<glyph glyph-name="menu" unicode="&#69;" d="M475 128l0-37c0-5-1-9-5-12-4-4-8-6-13-6l-402 0c-5 0-9 2-13 6-4 3-5 7-5 12l0 37c0 5 1 9 5 13 4 3 8 5 13 5l402 0c5 0 9-2 13-5 4-4 5-8 5-13z m0 146l0-36c0-5-1-10-5-13-4-4-8-6-13-6l-402 0c-5 0-9 2-13 6-4 3-5 8-5 13l0 36c0 5 1 10 5 13 4 4 8 6 13 6l402 0c5 0 9-2 13-6 4-3 5-8 5-13z m0 147l0-37c0-5-1-9-5-13-4-3-8-5-13-5l-402 0c-5 0-9 2-13 5-4 4-5 8-5 13l0 37c0 5 1 9 5 12 4 4 8 6 13 6l402 0c5 0 9-2 13-6 4-3 5-7 5-12z"/>
</font>
</defs>
</svg>
